# Made in Blockbench 5.1.3
mtllib drum_top_bottom.mtl

o tube
v 0.65533 0.0625 0.875
v 0.65533 0.9375 0.875
v 0.65518375 0.0625 0.874646875
v 0.875 0.0625 0.65533
v 0.875 0.9375 0.65533
v 0.874646875 0.0625 0.65518375
v 0.874646875 0.9375 0.65518375
v 0.875 0.0625 0.34467000000000003
v 0.875 0.9375 0.34467000000000003
v 0.874646875 0.0625 0.34481625
v 0.874646875 0.9375 0.34481625
v 0.65533 0.0625 0.125
v 0.65533 0.9375 0.125
v 0.65518375 0.0625 0.125353125
v 0.65518375 0.9375 0.125353125
v 0.34467000000000003 0.0625 0.125
v 0.34467000000000003 0.9375 0.125
v 0.34481625 0.0625 0.125353125
v 0.125 0.0625 0.34467000000000003
v 0.125 0.9375 0.34467000000000003
v 0.125353125 0.0625 0.34481625
v 0.125 0.0625 0.65533
v 0.125 0.9375 0.65533
v 0.125353125 0.0625 0.65518375
v 0.125353125 0.9375 0.65518375
v 0.34467000000000003 0.0625 0.875
v 0.34467000000000003 0.9375 0.875
v 0.34481625 0.0625 0.874646875
v 0.34481625 0.9375 0.874646875
v 0.65518375 0.9375 0.874646875
v 0.34481625 0.9375 0.125353125
v 0.125353125 0.9375 0.34481625
vt 0 0.99985875
vt 0 0.689483125
vt 0.00035375 0.68934125
vt 0.00035375 1
vt 0 0.99964625
vt 0.31065875 0.99964625
vt 0.310516875 1
vt 0.00014125 1
vt 0 0.99985
vt 0 0.6894875
vt 0.00035 0.6893374999999999
vt 0.00035 1
vt 0.00035 0.6893374999999999
vt 0.00035 1
vt 0 0.99985
vt 0 0.6894875
vt 0.310516875 1
vt 0.00014125 1
vt 0 0.99964625
vt 0.31065875 0.99964625
vt 0.00035375 0.68934125
vt 0.00035375 1
vt 0 0.99985875
vt 0 0.689483125
vt 0.3105125 1
vt 0.00015 1
vt 0 0.99965
vt 0.3106625 0.99965
vt 0.00035375 0.689483125
vt 0.00035375 0.99985875
vt 0 1
vt 0 0.68934125
vt 0.00035 0.6894875
vt 0.00035 0.99985
vt 0 1
vt 0 0.6893374999999999
vt 0 1
vt 0 0.6893374999999999
vt 0.00035 0.6894875
vt 0.00035 0.99985
vt 0.00014125 0.99964625
vt 0.310516875 0.99964625
vt 0.31065875 1
vt 0 1
vt 0 1
vt 0 0.68934125
vt 0.00035375 0.689483125
vt 0.00035375 0.99985875
vt 0.00015 0.99965
vt 0.3105125 0.99965
vt 0.3106625 1
vt 0 1
vt 0 0.99965
vt 0.3106625 0.99965
vt 0.3105125 1
vt 0.00015 1
vt 0.3106625 1
vt 0 1
vt 0.00015 0.99965
vt 0.3105125 0.99965
vt 0.31065875 1
vt 0 1
vt 0.00014125 0.99964625
vt 0.310516875 0.99964625
vt 0.31341875 0.875
vt 0.09375 0.6553312499999999
vt 0.09375 0.34466874999999997
vt 0.31341875 0.125
vt 0.6855125 0.87465
vt 0.3125 0.875
vt 0.3125 0.125
vt 0.6855125 0.12534999999999996
vt 0.90731875 0.65568125
vt 0.6875 0.875
vt 0.6875 0.12570000000000003
vt 0.90731875 0.34501875000000004
vt 0.31321875 0.875
vt 0.09375 0.65553125
vt 0.09375 0.34516875
vt 0.31321875 0.12570000000000003
vt 0.3125 0.12570000000000003
vt 0.6853625 0.12570000000000003
vt 0.6853625 0.875
vt 0.3125 0.875
vt 0.6875 0.875
vt 0.6875 0.12570000000000003
vt 0.90696875 0.34516875
vt 0.90696875 0.65553125
vn 0 -1 0
vn 0 1 0
vn 0 -1 0
vn 0 1 0
vn 0 -1 0
vn 0 1 0
vn 0 -1 0
vn 0 -1 0
vn 0 -1 0
vn 0 1 0
vn 0 -1 0
vn 0 1 0
vn 0 -1 0
vn 0 1 0
vn 0 1 0
vn 0 1 0
vn 0 1 0
vn 0 1 0
vn 0 1 0
vn 0 1 0
vn 0 1 0
vn 0 -1 0
usemtl bottom
f 3/1/1 6/2/1 4/3/1 1/4/1
f 2/5/2 5/6/2 7/7/2 30/8/2
f 6/9/3 10/10/3 8/11/3 4/12/3
f 5/13/4 9/14/4 11/15/4 7/16/4
f 10/17/5 14/18/5 12/19/5 8/20/5
f 9/21/6 13/22/6 15/23/6 11/24/6
f 14/25/7 18/26/7 16/27/7 12/28/7
f 18/29/8 21/30/8 19/31/8 16/32/8
f 21/33/9 24/34/9 22/35/9 19/36/9
f 20/37/10 23/38/10 25/39/10 32/40/10
f 24/41/11 28/42/11 26/43/11 22/44/11
f 23/45/12 27/46/12 29/47/12 25/48/12
f 28/49/13 3/50/13 1/51/13 26/52/13
f 27/53/14 2/54/14 30/55/14 29/56/14
f 13/57/15 17/58/15 31/59/15 15/60/15
f 17/61/16 20/62/16 32/63/16 31/64/16
f 17/65/17 20/66/17 23/67/17 27/68/17
f 15/69/18 17/70/18 27/71/18 30/72/18
f 9/73/19 15/74/19 30/75/19 5/76/19
f 18/77/20 21/78/20 24/79/20 28/80/20
f 28/81/21 3/82/21 14/83/21 18/84/21
f 3/85/22 14/86/22 10/87/22 6/88/22